<svg xmlns="http://www.w3.org/2000/svg" xmlns:xlink="http://www.w3.org/1999/xlink" width="400" zoomAndPan="magnify" viewBox="0 0 300 299.999988" height="400" preserveAspectRatio="xMidYMid meet" version="1.0"><path fill="#ffffff" d="M 294.636719 185.199219 C 294.46875 185.570312 294.296875 185.929688 294.117188 186.289062 C 288.820312 196.996094 277.976562 203.84375 266.078125 204.523438 C 194.675781 208.589844 108.113281 206.367188 36.515625 201.273438 C 29.988281 200.808594 23.757812 198.324219 18.746094 194.105469 C 11.816406 188.269531 5.78125 181.503906 3.863281 172.832031 C 0.695312 158.519531 11.128906 143.371094 25.007812 138.773438 C 36.445312 134.988281 49.167969 137.464844 59.621094 143.65625 C 60.296875 122.492188 75.898438 102.292969 96.492188 97.015625 C 112.96875 92.800781 131.214844 98.492188 143.339844 110.289062 C 151.804688 102.929688 161.851562 97.480469 172.824219 95.558594 C 188.191406 92.871094 205.316406 98.046875 214.746094 110.503906 C 221.074219 118.867188 222.992188 130.480469 220.078125 140.398438 C 225.550781 139.355469 231.40625 140.277344 236.160156 143.199219 C 241.015625 146.179688 244.535156 151.140625 246.035156 156.636719 C 254.957031 153.824219 264.433594 152.746094 273.761719 153.535156 C 281.109375 154.152344 288.9375 156.265625 293.460938 162.101562 C 298.414062 168.511719 297.957031 177.816406 294.636719 185.199219 Z M 294.636719 185.199219 " fill-opacity="1" fill-rule="nonzero"/><path fill="#000000" d="M 293.015625 159.496094 C 285.980469 152.640625 274.648438 151.800781 265.382812 152.136719 C 259.1875 152.355469 253.042969 153.367188 247.097656 155.097656 C 245.402344 150.070312 242.207031 145.613281 237.761719 142.652344 C 233.09375 139.542969 227.429688 138.398438 221.90625 138.957031 C 223.484375 132.160156 223.105469 124.960938 220.660156 118.386719 C 218.117188 111.5625 213.472656 105.816406 207.507812 101.6875 C 195.496094 93.371094 179.820312 91.707031 166.019531 95.996094 C 157.726562 98.570312 150.148438 102.976562 143.488281 108.523438 C 132.058594 98.058594 116.054688 92.675781 100.652344 94.972656 C 85.726562 97.195312 72.808594 107.035156 65.222656 119.910156 C 61.363281 126.453125 58.933594 133.84375 58.296875 141.414062 C 47.484375 135.75 34.398438 133.734375 22.832031 138.304688 C 12.550781 142.359375 4.261719 151.949219 2.253906 162.902344 C 0.0078125 175.222656 7.203125 185.789062 16.019531 193.582031 C 20.8125 197.824219 26.332031 200.882812 32.683594 202.023438 C 35.796875 202.582031 38.996094 202.667969 42.15625 202.886719 C 45.578125 203.117188 48.996094 203.34375 52.421875 203.558594 C 80.214844 205.3125 108.042969 206.53125 135.882812 207.21875 C 164.179688 207.914062 192.492188 208.074219 220.796875 207.457031 C 234.242188 207.164062 247.691406 206.695312 261.128906 205.984375 C 267.121094 205.671875 272.835938 205.199219 278.410156 202.765625 C 283.554688 200.523438 288.171875 197.027344 291.671875 192.628906 C 293.414062 190.453125 294.855469 188.042969 296.019531 185.507812 C 299.722656 177.121094 300.007812 166.3125 293.015625 159.496094 Z M 267.507812 203.226562 C 261.453125 203.832031 255.300781 203.910156 249.222656 204.164062 C 242.730469 204.4375 236.230469 204.664062 229.734375 204.84375 C 202.785156 205.585938 175.816406 205.59375 148.867188 205.09375 C 122.035156 204.59375 95.214844 203.582031 68.425781 202.089844 C 62.042969 201.730469 55.65625 201.351562 49.277344 200.933594 C 46.113281 200.734375 42.949219 200.519531 39.792969 200.296875 C 36.636719 200.078125 33.542969 199.839844 30.492188 198.949219 C 24.457031 197.1875 19.613281 193.398438 15.226562 189.019531 C 11.082031 184.878906 7.449219 179.988281 5.78125 174.296875 C 2.652344 163.640625 7.4375 152.324219 15.714844 145.402344 C 25.339844 137.347656 38.558594 136.601562 50.082031 140.625 C 53.109375 141.683594 56.011719 143.085938 58.777344 144.703125 C 59.53125 145.144531 61.054688 144.675781 61.09375 143.675781 C 61.601562 129.691406 68.488281 116.257812 79.199219 107.339844 C 84.605469 102.839844 90.96875 99.492188 97.832031 97.921875 C 105.191406 96.238281 112.894531 96.589844 120.160156 98.570312 C 128.425781 100.824219 136.042969 105.199219 142.207031 111.152344 C 142.722656 111.652344 143.757812 111.597656 144.277344 111.144531 C 155.324219 101.605469 169.335938 95.132812 184.167969 96.207031 C 197.414062 97.171875 210.832031 104.210938 216.71875 116.570312 C 220.160156 123.800781 220.902344 132.382812 218.699219 140.089844 C 218.390625 141.160156 219.335938 141.75 220.328125 141.570312 C 225.769531 140.59375 231.585938 141.597656 236.15625 144.804688 C 240.296875 147.710938 243.210938 152.105469 244.582031 156.953125 C 244.777344 157.636719 245.609375 158.019531 246.277344 157.8125 C 256.128906 154.746094 266.917969 153.503906 277.152344 155.179688 C 281.3125 155.863281 285.554688 157.125 288.980469 159.683594 C 292.460938 162.289062 294.648438 166.042969 295.390625 170.320312 C 296.242188 175.242188 295.253906 180.355469 293.253906 184.878906 C 288.574219 195.097656 278.664062 202.105469 267.507812 203.226562 Z M 267.507812 203.226562 " fill-opacity="1" fill-rule="nonzero"/></svg>