<svg width="2551" height="2457" viewBox="0 0 2551 2457" fill="none" xmlns="http://www.w3.org/2000/svg">
<mask id="mask0_355_72" style="mask-type:luminance" maskUnits="userSpaceOnUse" x="0" y="0" width="2551" height="2457">
<path d="M0 0H2551V2456.25H0V0Z" fill="white"/>
</mask>
<g mask="url(#mask0_355_72)">
<path d="M2551.1 1228.18C2551.1 1906.48 1980.01 2456.35 1275.56 2456.35C571.084 2456.35 0 1906.48 0 1228.18C0 549.884 571.084 0.0124512 1275.56 0.0124512C1980.01 0.0124512 2551.1 549.884 2551.1 1228.18Z" fill="#37AEDD"/>
</g>
<path d="M1834.36 284.073C1806.21 350.749 1847.44 399.244 1917.92 423.444C1926.9 426.535 1932.56 432.351 1940.32 430.622C1978.72 422.093 1997.89 405.593 2005.25 381.476C2008.7 370.14 2059.23 389.211 2056.68 417C2051.6 472.199 2000.62 500.118 1930 488.806C1878.02 480.478 1804.95 445.618 1788.97 502.795C1768.24 577.029 1889.32 647.97 1858.24 672.549C1850.49 678.697 1818.59 675.25 1810.54 688.102C1782.64 732.616 1776.02 810.309 1837.24 820.378C2043.47 854.267 1959.51 739.06 2020 771.646C2038.73 781.75 2054.24 832.152 2054.24 832.152C1958.08 810.12 2031.04 906.611 1931.42 844.269C1888.91 841.071 1857.98 859.372 1838.49 885.1C1829.28 914.014 1815.52 961.253 1812.06 966.015C1776.34 1015.37 1761.01 962.201 1723.21 1009.31C1671.05 1074.33 1663.18 1185.73 1689.32 1263.28C1711.4 1328.8 1781.36 1416.48 1854.24 1432.37C1884.01 1438.85 1913.1 1420.55 1939.1 1424.88C2045.28 1442.55 2004.26 1500.78 2029.17 1572.86C2038.49 1599.77 2069.39 1647.81 2044.88 1681.55C2024.73 1704.92 2000.7 1719.16 1972.72 1724.29C1970.14 1727.52 1960.71 1726.17 1958.55 1730.92C1941.97 1767.14 1963.43 1812.3 1972.59 1850.51C1966.63 1860.29 1961.01 1870.28 1953.68 1879.12C1932.45 1904.67 1894.25 1914.79 1875.99 1940.52C1862.11 1960.14 1858.27 1972.84 1870.89 1993.76C1877.33 2004.46 1898.12 1999.59 1904.32 1991.4C1944.43 1938.43 2019.16 1947.56 2057.55 1893.73C2084.49 1855.97 2094.61 1811.49 2119.05 1773.59C2148.62 1746.72 2217.59 1734 2226.85 1687.13C2236.87 1636.42 2289.49 1616.73 2286.97 1533.33C2314.42 1457.08 2385.39 1415.25 2413.59 1343.1C2432.32 1295.12 2444.14 1244.61 2442.11 1193.01C2441.04 1166.01 2433.42 1139.58 2425.2 1113.35C2435.66 1074.88 2482.54 1014.37 2520.33 959.31C2435.87 595.318 2183.81 292.447 1846.03 129.587C1829.51 180.699 1847.26 253.583 1834.36 284.073ZM247.491 1257.4C345.314 1283.76 336.641 1377.7 364.886 1479.68C396.181 1592.71 482.268 1585.18 627.009 1706.64C756.151 1811.23 717.315 1893.2 775.809 2012.25C811.779 2085.41 934.279 2113.19 986.745 2173.57C1000.73 2189.66 1045.6 2206.32 1023.58 2161.89C1001.04 2116.4 1008.54 2074.49 988.997 2054.24C960.568 2022.91 949.066 2007.05 961.687 1970.82C973.632 1923.62 993.45 1885.66 1051.3 1861.92C1122.01 1832.91 1159.15 1778.54 1183.81 1710.75C1194.4 1637.92 1258.14 1608.55 1258.41 1606C1262.79 1562.75 1215.94 1539.56 1179.84 1528.14C1118.36 1508.69 1069.86 1515.85 1022.26 1467.32C994.163 1438.66 982.637 1396.33 951.095 1371.12C909.823 1338.13 863.2 1356.74 815.79 1348.84C780.176 1289.01 665.291 1242.84 542.201 1311.87C490.092 1325.21 456.594 1305.43 418.078 1249.86C394.237 1183.93 401.188 1147.42 372.709 1104.81C335.534 1069.02 292.81 1068.33 253.273 1066.2C182.944 1025.69 219.037 996.718 252.24 966.109C288.591 939.031 351.182 918.314 387.594 920.292C414.08 921.725 422.974 927.755 450.161 918.729C527.71 892.953 520.92 804.493 606.896 754.743C612.96 751.237 687.951 748.216 727.329 657.055C732.668 644.713 739.889 583.97 744.551 580.121C764.467 563.644 809.27 589.028 825.25 599.002C834.931 605.031 851.944 598.493 858.132 590.509C925.016 504.335 862.819 454.869 788.013 397.704C563.336 226.078 594.729 477.185 483.03 440.382C463.938 434.092 450.259 417.663 438.929 397.408C433.357 372 452.768 290.137 612.505 254.542C715.458 231.598 686.635 271.351 767.924 278.103C788.382 279.82 812.837 277.51 830.638 266.151C871.455 240.127 823.355 167.622 771.467 99.9738C392.343 257.35 108.335 586.564 25.3359 985.832C90.9898 1349.28 165.329 1228.17 247.491 1257.4ZM865.82 65.2436C994.557 23.1693 1132.37 0 1275.87 0C1314.5 0 1352.65 1.94262 1390.4 5.17637C1400.23 54.5829 1404.99 109.924 1399.34 135.77C1384.52 203.774 1303.93 216.199 1253.4 250.444C1197.6 288.278 1217.93 312.217 1180.35 355.641C1178.21 358.117 1178.05 361.671 1175.29 364.004C1154.58 381.618 1140.12 383.359 1113.9 380.161C1057.21 373.22 1008.16 312.726 988.062 266.21C973.866 233.316 979.512 201.961 971.885 168.57C957.234 104.499 922.851 88.4839 865.82 65.2436Z" fill="#A4E288"/>
<path d="M643.18 253.649C578.278 250.335 520.676 267.095 514.533 291.084C508.39 315.079 556.02 337.214 620.933 340.532C685.846 343.845 743.448 327.086 749.591 303.091C755.734 279.102 708.104 256.967 643.18 253.649ZM2035.47 366.55C2029.32 390.539 1971.72 407.299 1906.81 403.981C1841.89 400.672 1794.25 378.532 1800.41 354.538C1806.55 330.548 1864.15 313.789 1929.07 317.102C1993.97 320.42 2041.62 342.56 2035.47 366.55Z" fill="#F9D4E6"/>
<path d="M1525.91 359.74C1531.09 357.559 1531.32 353.916 1526.44 351.605C1521.56 349.289 1513.39 349.182 1508.21 351.363C1453.29 374.466 1366.74 386.168 1276.67 382.65C1179.01 378.833 1092.09 358.143 1038.24 325.882C1033.98 323.334 1025.9 322.808 1020.19 324.704C1014.47 326.605 1013.29 330.21 1017.54 332.757C1075.81 367.653 1169.44 390.018 1274.42 394.115C1285.69 394.554 1296.89 394.771 1308.03 394.771C1393.01 394.771 1472.68 382.129 1525.91 359.74ZM872.651 222.42C833.144 222.42 801 236.76 801 254.391C801 272.023 833.144 286.363 872.651 286.363C912.147 286.363 944.28 272.023 944.28 254.391C944.28 236.76 912.147 222.42 872.651 222.42ZM1749 297.109C1749 314.735 1716.86 329.076 1677.35 329.076C1637.85 329.076 1605.72 314.735 1605.72 297.109C1605.72 279.478 1637.85 265.132 1677.35 265.132C1716.86 265.132 1749 279.478 1749 297.109Z" fill="#2D1E1A"/>
</svg>
